<svg width="25" height="25" viewBox="0 0 25 25" fill="none" xmlns="http://www.w3.org/2000/svg">
<path d="M5.35714 7.02381L2.82143 4.5L4.5 2.82143L7.02381 5.35714L5.35714 7.02381ZM13.6905 0V3.57143H11.3095V0H13.6905ZM22.1786 4.5L19.6429 7.02381L17.9762 5.35714L20.5 2.82143L22.1786 4.5ZM3.57143 11.3095V13.6905H0V11.3095H3.57143ZM21.4286 11.3095H25V13.6905H21.4286V11.3095ZM5.35714 22.619H19.6429C20.2743 22.619 20.8799 22.8699 21.3264 23.3164C21.773 23.7629 22.0238 24.3685 22.0238 25H2.97619C2.97619 24.3685 3.22704 23.7629 3.67356 23.3164C4.12007 22.8699 4.72568 22.619 5.35714 22.619ZM12.5 4.7619C14.3944 4.7619 16.2112 5.51445 17.5508 6.854C18.8903 8.19355 19.6429 10.0104 19.6429 11.9048V21.4286H5.35714V11.9048C5.35714 10.0104 6.10969 8.19355 7.44924 6.854C8.78878 5.51445 10.6056 4.7619 12.5 4.7619Z" fill="#FF0000"/>
</svg>
