<svg width="28" height="17" viewBox="0 0 28 17" fill="none" xmlns="http://www.w3.org/2000/svg">
<path d="M22.1565 1.9233L16.2522 14.645C15.7348 15.9537 14.8217 16.7146 13.8174 16.7146C12.9957 16.7146 12.2957 16.2885 11.9 15.619C11.4739 14.8277 11.5043 13.8537 12.0217 13.032L19.7522 0.645042C20.1478 0.0363466 20.9391 -0.176697 21.5783 0.158086C22.2174 0.492868 22.4609 1.25374 22.1565 1.9233ZM24.2261 5.60591C23.7696 5.11896 23.0087 5.08852 22.4913 5.54504C22.0043 6.00156 21.9739 6.76243 22.4304 7.27983C24.4391 9.47113 25.5652 12.332 25.5652 15.345C25.5652 16.0146 26.113 16.5624 26.7826 16.5624C27.4522 16.5624 28 16.0146 28 15.345C28 11.7233 26.6609 8.25374 24.2261 5.60591ZM14.9739 3.59722C15.6435 3.65809 16.2217 3.17113 16.2826 2.50156C16.3435 1.832 15.8565 1.25374 15.187 1.19287C14.7913 1.16243 14.3957 1.132 14 1.132C6.26957 1.132 0 7.5233 0 15.3755C0 16.045 0.547826 16.5929 1.21739 16.5929C1.88696 16.5929 2.43478 16.045 2.43478 15.3755C2.43478 8.86243 7.6087 3.56678 14 3.56678C14.3348 3.53635 14.6696 3.56678 14.9739 3.59722Z" fill="#0071DA"/>
</svg>
