<svg width="31" height="31" viewBox="0 0 31 31" fill="none" xmlns="http://www.w3.org/2000/svg">
<path d="M15.5 0.833374C12.5993 0.833374 9.7636 1.69356 7.35168 3.30515C4.93976 4.91675 3.0599 7.20737 1.94981 9.88735C0.839729 12.5673 0.54928 15.5163 1.1152 18.3614C1.68111 21.2064 3.07798 23.8198 5.12915 25.8709C7.18032 27.9221 9.79367 29.319 12.6387 29.8849C15.4838 30.4508 18.4328 30.1604 21.1127 29.0503C23.7927 27.9402 26.0833 26.0603 27.6949 23.6484C29.3065 21.2365 30.1667 18.4008 30.1667 15.5C30.1667 11.6102 28.6215 7.87967 25.8709 5.12914C23.1204 2.37861 19.3899 0.833374 15.5 0.833374ZM15.555 17.04C15.4002 17.0413 15.2466 17.0118 15.1032 16.9534C14.9598 16.8949 14.8294 16.8087 14.7194 16.6996C14.6095 16.5906 14.5223 16.4608 14.4627 16.3178C14.4032 16.1749 14.3725 16.0216 14.3725 15.8667V6.92921C14.3725 6.61559 14.4971 6.31482 14.7189 6.09305C14.9407 5.87129 15.2414 5.74671 15.555 5.74671C15.8687 5.74671 16.1694 5.87129 16.3912 6.09305C16.613 6.31482 16.7375 6.61559 16.7375 6.92921V15.8667C16.7376 16.0216 16.7069 16.1749 16.6474 16.3178C16.5878 16.4608 16.5006 16.5906 16.3906 16.6996C16.2807 16.8087 16.1503 16.8949 16.0069 16.9534C15.8635 17.0118 15.7099 17.0413 15.555 17.04ZM15.5 24.4742C13.5694 24.497 11.6819 23.9023 10.1131 22.7767C8.54436 21.6511 7.37637 20.0535 6.77963 18.2172C6.18289 16.381 6.18862 14.402 6.796 12.5692C7.40338 10.7364 8.58061 9.1457 10.1559 8.02921C10.4303 7.83364 10.7705 7.75382 11.1033 7.80699C11.436 7.86015 11.7344 8.04204 11.9342 8.31337C12.0317 8.44737 12.1018 8.59934 12.1403 8.76053C12.1788 8.92172 12.185 9.08894 12.1586 9.25254C12.1322 9.41615 12.0737 9.57291 11.9864 9.71379C11.8991 9.85467 11.7848 9.97688 11.65 10.0734C10.744 10.7388 10.0234 11.6252 9.55712 12.6482C9.09081 13.6711 8.8943 14.7964 8.9863 15.9168C9.07831 17.0372 9.45576 18.1154 10.0827 19.0485C10.7096 19.9817 11.5651 20.7387 12.5676 21.2474C13.5701 21.7561 14.6862 21.9996 15.8095 21.9545C16.9328 21.9095 18.0258 21.5775 18.9844 20.9902C19.943 20.4029 20.7351 19.5798 21.2853 18.5995C21.8356 17.6192 22.1255 16.5142 22.1275 15.39C22.1245 14.3542 21.8732 13.3343 21.3947 12.4156C20.9162 11.4969 20.2245 10.7063 19.3775 10.11C19.1167 9.90423 18.9481 9.60345 18.9086 9.27359C18.8691 8.94372 18.9619 8.61163 19.1667 8.35004C19.3692 8.08158 19.669 7.90333 20.0015 7.85361C20.3341 7.8039 20.6729 7.8867 20.945 8.08421C22.5039 9.21349 23.6623 10.8101 24.2524 12.6423C24.8424 14.4745 24.8334 16.4471 24.2265 18.2738C23.6196 20.1005 22.4465 21.6864 20.8774 22.8013C19.3083 23.9162 17.4247 24.5022 15.5 24.4742Z" fill="#3AB500"/>
</svg>
