<svg width="10" height="10" viewBox="0 0 10 10" fill="none" xmlns="http://www.w3.org/2000/svg">
<path d="M4.86478 4.18678C4.74755 4.18678 4.63511 4.23335 4.55221 4.31625C4.46931 4.39915 4.42274 4.51159 4.42274 4.62882C4.42274 4.74606 4.46931 4.8585 4.55221 4.9414C4.63511 5.0243 4.74755 5.07087 4.86478 5.07087C4.98202 5.07087 5.09446 5.0243 5.17736 4.9414C5.26026 4.8585 5.30683 4.74606 5.30683 4.62882C5.30683 4.51159 5.26026 4.39915 5.17736 4.31625C5.09446 4.23335 4.98202 4.18678 4.86478 4.18678ZM5.08581 0.208374C7.07501 0.208374 7.12363 1.78647 6.08041 2.30809C5.64278 2.52469 5.44828 2.98884 5.36429 3.39994C5.57648 3.48835 5.76214 3.62538 5.90359 3.8022C7.53916 2.91811 9.29849 3.26732 9.29849 4.84985C9.29849 6.83905 7.72039 6.88325 7.19878 5.83561C6.97776 5.39798 6.50919 5.20348 6.09809 5.11949C6.00968 5.33167 5.87265 5.51291 5.69583 5.66321C6.5755 7.29435 6.22628 9.04927 4.64376 9.04927C2.65456 9.04927 2.61478 7.46675 3.658 6.94514C4.09121 6.72854 4.28571 6.26881 4.37411 5.86213C4.15751 5.77372 3.96743 5.63226 3.82598 5.45545C2.19483 6.3307 0.444336 5.9859 0.444336 4.4078C0.444336 2.4186 2.01802 2.36997 2.53963 3.41762C2.76065 3.85524 3.2248 4.04532 3.6359 4.12931C3.71989 3.91713 3.86134 3.73147 4.04258 3.59002C3.16291 1.95887 3.51213 0.208374 5.08581 0.208374Z" fill="black"/>
</svg>
