<svg width="24" height="26" viewBox="0 0 24 26" fill="none" xmlns="http://www.w3.org/2000/svg">
<path d="M13.2 20.4C13.2 18.708 13.8 17.16 14.76 15.936C14.604 15.564 14.436 15.18 14.232 14.808C14.712 14.4 15.084 13.908 15.324 13.332C15.912 13.452 16.536 13.668 17.1 14.004C18.084 13.5 19.2 13.2 20.4 13.2C21.66 13.2 22.836 13.524 23.868 14.088C23.94 13.644 24 13.152 24 12.6C24 8.304 19.236 7.356 14.796 9.756C14.4 9.276 13.908 8.904 13.332 8.664C13.56 7.548 14.088 6.288 15.276 5.7C18.108 4.284 18 0 12.6 0C8.316 0 7.368 4.752 9.756 9.18C9.264 9.564 8.88 10.068 8.652 10.644C7.536 10.416 6.276 9.9 5.676 8.712C4.272 5.868 0 6 0 11.4C0 15.684 4.74 16.62 9.168 14.244C9.552 14.724 10.068 15.108 10.656 15.348C10.416 16.452 9.888 17.7 8.712 18.288C5.88 19.704 6 24 11.4 24C12.372 24 13.2 23.736 13.8 23.292C13.428 22.404 13.2 21.432 13.2 20.4ZM12 13.2C11.316 13.2 10.8 12.66 10.8 12C10.8 11.34 11.316 10.8 12 10.8C12.648 10.8 13.2 11.34 13.2 12C13.2 12.66 12.648 13.2 12 13.2ZM18 15.6V18H19.2V25.2H21.6V15.6H18Z" fill="black"/>
</svg>
