<svg width="25" height="22" viewBox="0 0 25 22" fill="none" xmlns="http://www.w3.org/2000/svg">
<path d="M25 2.12033V16.0441C24.998 16.6058 24.7739 17.144 24.3767 17.5412C23.9795 17.9384 23.4414 18.1624 22.8797 18.1644H14.8921L12.9401 21.2933C12.9002 21.3879 12.8332 21.4686 12.7476 21.5254C12.662 21.5822 12.5616 21.6125 12.4589 21.6125C12.3561 21.6125 12.2557 21.5822 12.1701 21.5254C12.0845 21.4686 12.0175 21.3879 11.9776 21.2933L10.0256 18.1644H2.12224C1.56019 18.1629 1.02155 17.9391 0.623938 17.5418C0.226322 17.1446 0.00201976 16.6061 0 16.0441V2.12033C0.00201699 1.5586 0.226056 1.02046 0.623259 0.623259C1.02046 0.226056 1.5586 0.00201699 2.12033 0H22.8797C23.4414 0.00201699 23.9795 0.226056 24.3767 0.623259C24.7739 1.02046 24.998 1.5586 25 2.12033ZM13.851 13.7056C13.8514 13.4383 13.7725 13.1769 13.6243 12.9545C13.4761 12.7321 13.2652 12.5586 13.0183 12.456C12.7715 12.3535 12.4998 12.3265 12.2376 12.3784C11.9754 12.4303 11.7345 12.5588 11.5453 12.7477C11.3562 12.9366 11.2273 13.1773 11.1751 13.4394C11.1228 13.7015 11.1494 13.9733 11.2516 14.2203C11.3538 14.4673 11.527 14.6784 11.7492 14.8269C11.9714 14.9754 12.2327 15.0547 12.5 15.0547C12.858 15.0547 13.2013 14.9127 13.4547 14.6597C13.708 14.4067 13.8505 14.0636 13.851 13.7056ZM11.4398 10.2036C11.4398 10.4848 11.5515 10.7544 11.7504 10.9533C11.9492 11.1521 12.2188 11.2638 12.5 11.2638C12.7812 11.2638 13.0508 11.1521 13.2497 10.9533C13.4485 10.7544 13.5602 10.4848 13.5602 10.2036V4.01294C13.5602 3.73176 13.4485 3.46211 13.2497 3.26329C13.0508 3.06447 12.7812 2.95277 12.5 2.95277C12.2188 2.95277 11.9492 3.06447 11.7504 3.26329C11.5515 3.46211 11.4398 3.73176 11.4398 4.01294V10.2036Z" fill="#FF0000"/>
</svg>
