<svg width="24" height="24" viewBox="0 0 24 24" fill="none" xmlns="http://www.w3.org/2000/svg">
<path d="M9.14286 0C8 0 7.08571 0.880734 7.08571 1.98165C7.08571 3.08257 8 3.9633 9.14286 3.9633C10.2857 3.9633 11.2 3.08257 11.2 1.98165C11.2 0.880734 10.2857 0 9.14286 0ZM15.6229 0.880734C15.6229 3.02096 16.5054 5.07352 18.0765 6.58689C19.6475 8.10026 21.7782 8.95046 24 8.95046V7.48624C22.1814 7.48624 20.4372 6.7903 19.1513 5.55153C17.8653 4.31276 17.1429 2.63262 17.1429 0.880734H15.6229ZM18.6629 0.880734C18.6629 3.7211 21.0514 6.02202 24 6.02202V4.54679C21.8971 4.54679 20.1943 2.90642 20.1943 0.880734H18.6629ZM21.7143 0.880734C21.7143 1.4647 21.9551 2.02474 22.3838 2.43767C22.8124 2.85059 23.3938 3.08257 24 3.08257V0.880734H21.7143ZM6.76571 4.21651C6.57143 4.21651 6.37714 4.24954 6.19429 4.30459L0 6.16514V11.8899H2.05714V7.84954L4.46857 7.12294L0 24H2.05714L5.33714 15.0716L8 18.4954V24H10.0571V16.9431L7.21143 11.945L8.04571 8.78532L9.28 10.789H14.8571V8.80734H10.72L8.43429 5.14128C8.09143 4.59083 7.47429 4.21651 6.76571 4.21651Z" fill="#27C100"/>
</svg>
