<svg width="25" height="25" viewBox="0 0 25 25" fill="none" xmlns="http://www.w3.org/2000/svg">
<path d="M5.17032 11.743C5.56348 11.3996 5.86416 10.963 6.04481 10.4733C6.22545 9.98353 6.28027 9.45626 6.20425 8.93982C6.12822 8.42338 5.92379 7.93428 5.60967 7.51736C5.29556 7.10043 4.88182 6.76902 4.40639 6.5535C3.93095 6.33798 3.40902 6.24524 2.88843 6.28379C2.36785 6.32234 1.86527 6.49095 1.42676 6.77415C0.988256 7.05734 0.627847 7.44608 0.378571 7.90473C0.129296 8.36337 -0.000869863 8.87724 4.37481e-06 9.39925C0.00138914 9.84449 0.0985215 10.2842 0.284812 10.6886C0.471102 11.093 0.742193 11.4526 1.07969 11.743C0.742193 12.0334 0.471102 12.393 0.284812 12.7974C0.0985215 13.2018 0.00138914 13.6415 4.37481e-06 14.0868V17.2117H1.5625V14.0868C1.5625 13.6723 1.72712 13.2749 2.02015 12.9819C2.31317 12.6889 2.7106 12.5243 3.125 12.5243C3.5394 12.5243 3.93683 12.6889 4.22986 12.9819C4.52288 13.2749 4.6875 13.6723 4.6875 14.0868V15.4867L5.80469 12.5055C5.63565 12.2193 5.42203 11.9619 5.17188 11.743H5.17032ZM1.5625 9.39925C1.5625 9.09022 1.65414 8.78813 1.82583 8.53117C1.99752 8.27422 2.24155 8.07395 2.52706 7.95569C2.81257 7.83743 3.12674 7.80649 3.42983 7.86677C3.73293 7.92706 4.01134 8.07588 4.22986 8.2944C4.44838 8.51292 4.59719 8.79133 4.65748 9.09442C4.71777 9.39752 4.68683 9.71168 4.56857 9.99719C4.4503 10.2827 4.25003 10.5267 3.99308 10.6984C3.73613 10.8701 3.43404 10.9618 3.125 10.9618C2.71073 10.9613 2.31354 10.7966 2.02061 10.5036C1.72767 10.2107 1.56292 9.81352 1.5625 9.39925ZM23.9203 11.743C24.4021 11.3259 24.7448 10.7716 24.9027 10.1542C25.0605 9.53686 25.0258 8.88602 24.8032 8.28893C24.5807 7.69184 24.1809 7.17706 23.6576 6.81358C23.1342 6.4501 22.5122 6.25531 21.875 6.25531C21.2378 6.25531 20.6158 6.4501 20.0924 6.81358C19.5691 7.17706 19.1693 7.69184 18.9468 8.28893C18.7242 8.88602 18.6895 9.53686 18.8473 10.1542C19.0052 10.7716 19.3479 11.3259 19.8297 11.743C19.579 11.9618 19.3648 12.2192 19.1953 12.5055L20.3125 15.4867V14.0868C20.3125 13.6723 20.4771 13.2749 20.7701 12.9819C21.0632 12.6889 21.4606 12.5243 21.875 12.5243C22.2894 12.5243 22.6868 12.6889 22.9799 12.9819C23.2729 13.2749 23.4375 13.6723 23.4375 14.0868V17.2117H25V14.0868C24.9986 13.6415 24.9015 13.2018 24.7152 12.7974C24.5289 12.393 24.2578 12.0334 23.9203 11.743ZM20.3125 9.39925C20.3125 9.09022 20.4041 8.78813 20.5758 8.53117C20.7475 8.27422 20.9915 8.07395 21.2771 7.95569C21.5626 7.83743 21.8767 7.80649 22.1798 7.86677C22.4829 7.92706 22.7613 8.07588 22.9799 8.2944C23.1984 8.51292 23.3472 8.79133 23.4075 9.09442C23.4678 9.39752 23.4368 9.71168 23.3186 9.99719C23.2003 10.2827 23 10.5267 22.7431 10.6984C22.4861 10.8701 22.184 10.9618 21.875 10.9618C21.4607 10.9613 21.0635 10.7966 20.7706 10.5036C20.4777 10.2107 20.3129 9.81352 20.3125 9.39925ZM10.9375 7.83675C10.9375 7.42235 11.1021 7.02492 11.3951 6.7319C11.6882 6.43887 12.0856 6.27425 12.5 6.27425C12.9144 6.27425 13.3118 6.43887 13.6049 6.7319C13.8979 7.02492 14.0625 7.42235 14.0625 7.83675V9.39925H15.625V7.83675C15.6236 7.39151 15.5265 6.95178 15.3402 6.54739C15.1539 6.143 14.8828 5.7834 14.5453 5.493C15.0271 5.07595 15.3698 4.52158 15.5277 3.90423C15.6855 3.28687 15.6508 2.63602 15.4282 2.03893C15.2057 1.44185 14.8059 0.92706 14.2826 0.563583C13.7592 0.200105 13.1372 0.00531006 12.5 0.00531006C11.8628 0.00531006 11.2408 0.200105 10.7174 0.563583C10.1941 0.92706 9.79431 1.44185 9.57177 2.03893C9.34923 2.63602 9.31454 3.28687 9.47235 3.90423C9.63016 4.52158 9.97292 5.07595 10.4547 5.493C10.1172 5.7834 9.8461 6.143 9.65981 6.54739C9.47352 6.95178 9.37639 7.39151 9.375 7.83675V9.39925H10.9375V7.83675ZM10.9375 3.14925C10.9375 2.84022 11.0291 2.53813 11.2008 2.28117C11.3725 2.02422 11.6165 1.82395 11.9021 1.70569C12.1876 1.58743 12.5017 1.55649 12.8048 1.61678C13.1079 1.67707 13.3863 1.82588 13.6049 2.0444C13.8234 2.26292 13.9722 2.54133 14.0325 2.84442C14.0928 3.14752 14.0618 3.46169 13.9436 3.7472C13.8253 4.03271 13.625 4.27673 13.3681 4.44842C13.1111 4.62011 12.809 4.71175 12.5 4.71175C12.0857 4.71134 11.6885 4.54659 11.3956 4.25365C11.1027 3.96071 10.9379 3.56353 10.9375 3.14925ZM17.3281 11.9742L21.825 23.968L20.3625 24.518L15.8641 12.5243H9.13594L4.6375 24.518L3.175 23.968L7.67188 11.9742C7.78478 11.6771 7.98518 11.4213 8.24659 11.2405C8.508 11.0597 8.81811 10.9625 9.13594 10.9618H15.8641C16.1819 10.9625 16.492 11.0597 16.7534 11.2405C17.0148 11.4213 17.2152 11.6771 17.3281 11.9742Z" fill="black"/>
</svg>
