<svg width="9" height="12" viewBox="0 0 9 12" fill="none" xmlns="http://www.w3.org/2000/svg">
<path d="M8.32355 8.08185L7.65457 7.6569C7.77562 7.51979 7.91446 7.40313 8.06658 7.31072C8.16603 7.24906 8.2393 7.1467 8.27044 7.02592C8.30158 6.90515 8.28808 6.77573 8.23286 6.66585C8.17765 6.55597 8.08519 6.47452 7.97563 6.43925C7.86607 6.40397 7.74827 6.41771 7.64788 6.47749C7.35743 6.65427 7.10006 6.88993 6.88937 7.17203L5.15573 6.06964L6.88898 4.96919C7.09962 5.25135 7.357 5.48702 7.64748 5.66373C7.69727 5.6946 7.75213 5.71432 7.80888 5.72175C7.86564 5.72919 7.92317 5.72419 7.97816 5.70704C8.03315 5.68989 8.0845 5.66094 8.12926 5.62186C8.17402 5.58277 8.2113 5.53432 8.23895 5.47931C8.26659 5.4243 8.28405 5.36381 8.29033 5.30134C8.2966 5.23886 8.29156 5.17564 8.2755 5.11532C8.25944 5.055 8.23267 4.99878 8.19675 4.94989C8.16082 4.90101 8.11645 4.86043 8.06619 4.8305C7.9141 4.73803 7.77527 4.62138 7.65417 4.48432L8.32315 4.05937C8.37432 4.02929 8.41947 3.9882 8.45591 3.93854C8.49236 3.88889 8.51935 3.83168 8.53528 3.77033C8.55122 3.70897 8.55578 3.64472 8.54868 3.58139C8.54159 3.51806 8.52299 3.45695 8.49398 3.40168C8.46498 3.34642 8.42617 3.29813 8.37986 3.25968C8.33355 3.22124 8.28068 3.19343 8.2244 3.1779C8.16812 3.16237 8.10957 3.15944 8.05224 3.16929C7.99491 3.17914 7.93997 3.20157 7.89068 3.23523L7.2217 3.65996C7.17405 3.47603 7.15137 3.28537 7.1544 3.09416C7.15566 3.03154 7.14566 2.96926 7.12498 2.9109C7.1043 2.85253 7.07336 2.79923 7.03391 2.75405C6.99446 2.70886 6.9473 2.67268 6.89511 2.64758C6.84293 2.62248 6.78675 2.60895 6.7298 2.60777H6.72173C6.60831 2.60774 6.49941 2.65668 6.41846 2.74404C6.33751 2.83139 6.29097 2.9502 6.28886 3.0749C6.28276 3.43967 6.33951 3.80241 6.45611 4.14397L4.72285 5.24506V3.04439C5.05034 2.98488 5.3646 2.85764 5.649 2.66943C5.74734 2.60427 5.81811 2.49882 5.84575 2.37628C5.87339 2.25374 5.85563 2.12414 5.79637 2.016C5.73712 1.90786 5.64122 1.83004 5.52979 1.79964C5.41835 1.76925 5.3005 1.78878 5.20216 1.85394C5.05308 1.95247 4.89156 2.02619 4.72285 2.07269V1.35284C4.72285 1.22659 4.67725 1.10552 4.59607 1.01625C4.51489 0.926982 4.40479 0.876831 4.28998 0.876831C4.17518 0.876831 4.06508 0.926982 3.9839 1.01625C3.90272 1.10552 3.85711 1.22659 3.85711 1.35284V2.07269C3.6884 2.02619 3.52689 1.95247 3.37781 1.85394C3.32912 1.82168 3.27512 1.80028 3.21891 1.79096C3.16269 1.78165 3.10536 1.7846 3.05018 1.79964C2.995 1.81469 2.94306 1.84154 2.89732 1.87867C2.85158 1.91579 2.81294 1.96246 2.7836 2.016C2.75426 2.06955 2.7348 2.12892 2.72632 2.19074C2.71785 2.25256 2.72053 2.3156 2.73422 2.37628C2.7479 2.43696 2.77232 2.49408 2.80608 2.54437C2.83984 2.59467 2.88228 2.63717 2.93097 2.66943C3.21537 2.85764 3.52963 2.98488 3.85711 3.04439V5.24506L2.12386 4.14397C2.24064 3.80231 2.29752 3.43941 2.2915 3.07447C2.28939 2.94977 2.24285 2.83096 2.1619 2.7436C2.08095 2.65624 1.97205 2.60731 1.85863 2.60733H1.85017C1.79332 2.60849 1.73724 2.62195 1.68512 2.64694C1.633 2.67193 1.58588 2.70797 1.54643 2.753C1.50698 2.79803 1.47598 2.85116 1.45521 2.90936C1.43444 2.96757 1.4243 3.0297 1.42537 3.09221C1.42854 3.28371 1.40593 3.47466 1.35827 3.65888L0.689294 3.23523C0.64003 3.20292 0.585417 3.18169 0.528629 3.17279C0.471841 3.16389 0.41401 3.16748 0.358497 3.18337C0.302985 3.19926 0.250898 3.22713 0.205264 3.26535C0.159629 3.30357 0.121358 3.35138 0.0926741 3.406C0.0639901 3.46063 0.0454654 3.52098 0.0381767 3.58355C0.0308879 3.64611 0.0349805 3.70965 0.0502166 3.77046C0.0654527 3.83128 0.0915284 3.88815 0.126928 3.93779C0.162328 3.98742 0.206346 4.02882 0.256423 4.05959L0.925404 4.48453C0.804307 4.6216 0.665472 4.73825 0.513391 4.83072C0.463129 4.86065 0.418755 4.90123 0.38283 4.95011C0.346904 4.99899 0.320138 5.05522 0.304076 5.11554C0.288015 5.17586 0.282975 5.23908 0.289249 5.30155C0.295523 5.36403 0.312986 5.42451 0.34063 5.47953C0.368274 5.53454 0.405552 5.58299 0.450312 5.62207C0.495073 5.66116 0.546429 5.69011 0.601418 5.70726C0.656407 5.7244 0.713939 5.7294 0.770695 5.72197C0.82745 5.71454 0.882305 5.69482 0.932094 5.66395C1.22254 5.48717 1.47991 5.25151 1.6906 4.96941L3.42424 6.06964L1.69099 7.17008C1.4803 6.88798 1.22293 6.65232 0.932488 6.47554C0.882699 6.44467 0.827844 6.42495 0.771088 6.41752C0.714333 6.41009 0.6568 6.41509 0.601811 6.43223C0.546823 6.44938 0.495466 6.47833 0.450706 6.51742C0.405945 6.55651 0.368668 6.60495 0.341024 6.65997C0.313379 6.71498 0.295917 6.77547 0.289643 6.83794C0.283369 6.90041 0.288408 6.96363 0.30447 7.02395C0.320531 7.08427 0.347297 7.1405 0.383223 7.18938C0.419149 7.23827 0.463523 7.27884 0.513784 7.30877C0.665866 7.40124 0.8047 7.51789 0.925798 7.65496L0.256423 8.08185C0.206346 8.11261 0.162328 8.15402 0.126928 8.20365C0.0915284 8.25328 0.0654527 8.31016 0.0502166 8.37097C0.0349805 8.43179 0.0308879 8.49532 0.0381767 8.55789C0.0454654 8.62046 0.0639901 8.68081 0.0926741 8.73543C0.121358 8.79006 0.159629 8.83787 0.205264 8.87609C0.250898 8.91431 0.302985 8.94217 0.358497 8.95806C0.41401 8.97395 0.471841 8.97755 0.528629 8.96865C0.585417 8.95975 0.64003 8.93852 0.689294 8.90621L1.35827 8.48148C1.40592 8.66541 1.4286 8.85606 1.42557 9.04728C1.42356 9.17338 1.46716 9.2952 1.54677 9.38599C1.62638 9.47678 1.7355 9.52912 1.85017 9.53151H1.85824C1.97166 9.53153 2.08056 9.4826 2.16151 9.39524C2.24246 9.30788 2.289 9.18907 2.29111 9.06437C2.29721 8.6996 2.24046 8.33686 2.12386 7.9953L3.85711 6.89421V9.09488C3.52963 9.1544 3.21537 9.28163 2.93097 9.46984C2.83263 9.535 2.76186 9.64045 2.73422 9.76299C2.70658 9.88554 2.72434 10.0151 2.7836 10.1233C2.84285 10.2314 2.93875 10.3092 3.05018 10.3396C3.16162 10.37 3.27947 10.3505 3.37781 10.2853C3.52689 10.1868 3.6884 10.1131 3.85711 10.0666V10.7864C3.85711 10.9127 3.90272 11.0338 3.9839 11.123C4.06508 11.2123 4.17518 11.2624 4.28998 11.2624C4.40479 11.2624 4.51489 11.2123 4.59607 11.123C4.67725 11.0338 4.72285 10.9127 4.72285 10.7864V10.0666C4.89156 10.1131 5.05308 10.1868 5.20216 10.2853C5.3005 10.3505 5.41835 10.37 5.52979 10.3396C5.64122 10.3092 5.73712 10.2314 5.79637 10.1233C5.85563 10.0151 5.87339 9.88554 5.84575 9.76299C5.81811 9.64045 5.74734 9.535 5.649 9.46984C5.3646 9.28163 5.05034 9.1544 4.72285 9.09488V6.89421L6.45611 7.9953C6.33933 8.33697 6.28245 8.69986 6.28847 9.06481C6.29058 9.18951 6.33712 9.30831 6.41807 9.39567C6.49902 9.48303 6.60792 9.53196 6.72134 9.53194H6.7298C6.78665 9.53079 6.84273 9.51733 6.89485 9.49233C6.94696 9.46734 6.99409 9.4313 7.03354 9.38627C7.07299 9.34125 7.10399 9.28811 7.12476 9.22991C7.14553 9.17171 7.15567 9.10958 7.1546 9.04706C7.15143 8.85557 7.17404 8.66461 7.2217 8.4804L7.89068 8.90513C7.93994 8.93991 7.9951 8.96334 8.05284 8.97401C8.11057 8.98468 8.16967 8.98235 8.22656 8.96719C8.28346 8.95201 8.33696 8.92431 8.38384 8.88575C8.43072 8.84719 8.47 8.79858 8.4993 8.74284C8.5286 8.68711 8.54732 8.62542 8.55432 8.56151C8.56133 8.4976 8.55646 8.43278 8.54003 8.371C8.52361 8.30921 8.49595 8.25172 8.45874 8.20202C8.42153 8.15233 8.37554 8.11144 8.32355 8.08185Z" fill="black"/>
</svg>
