<svg width="15" height="15" viewBox="0 0 15 15" fill="none" xmlns="http://www.w3.org/2000/svg">
<path d="M5.50459 0C4.81651 0 4.26606 0.550459 4.26606 1.23853C4.26606 1.92661 4.81651 2.47706 5.50459 2.47706C6.19266 2.47706 6.74312 1.92661 6.74312 1.23853C6.74312 0.550459 6.19266 0 5.50459 0ZM9.40596 0.550459C9.40596 1.8881 9.93734 3.17095 10.8832 4.11681C11.829 5.06266 13.1119 5.59404 14.4495 5.59404V4.6789C13.3546 4.6789 12.3045 4.24394 11.5303 3.46971C10.7561 2.69547 10.3211 1.64539 10.3211 0.550459H9.40596ZM11.2362 0.550459C11.2362 2.32569 12.6743 3.76376 14.4495 3.76376V2.84174C13.1835 2.84174 12.1583 1.81651 12.1583 0.550459H11.2362ZM13.0734 0.550459C13.0734 0.915436 13.2184 1.26546 13.4765 1.52354C13.7345 1.78162 14.0846 1.92661 14.4495 1.92661V0.550459H13.0734ZM4.07339 2.63532C3.95642 2.63532 3.83945 2.65596 3.72936 2.69037L0 3.85321V7.43119H1.23853V4.90596L2.69037 4.45184L0 15H1.23853L3.2133 9.41973L4.81651 11.5596V15H6.05505V10.5894L4.34174 7.4656L4.84404 5.49083L5.58716 6.74312H8.94495V5.50459H6.45413L5.07798 3.2133C4.87156 2.86927 4.5 2.63532 4.07339 2.63532Z" fill="black"/>
</svg>
